<svg width="161" height="176" viewBox="0 0 161 176" fill="none" xmlns="http://www.w3.org/2000/svg">
<path d="M113.357 0.0771484H47.1975C38.4228 0.0771484 31.2939 7.65784 31.2939 16.9703V158.577C31.2939 167.89 38.4228 175.47 47.1975 175.47H113.357C122.124 175.47 129.261 167.89 129.261 158.577V16.9703C129.261 7.65784 122.124 0.0771484 113.357 0.0771484ZM37.8691 16.9703C37.8691 11.5054 42.0527 7.06151 47.1975 7.06151H113.357C118.495 7.06151 122.678 11.5054 122.678 16.9703V138.784H37.8691V16.9703ZM122.678 158.577C122.678 164.034 118.495 168.478 113.357 168.478H47.1975C42.0527 168.478 37.8691 164.034 37.8691 158.577V145.769H122.678V158.577Z" fill="#6B2FE2"/>
<path d="M85.0417 11.9546H75.5057C73.6907 11.9546 72.2142 13.523 72.2142 15.4509C72.2142 17.3787 73.6907 18.9471 75.5057 18.9471H85.0417C86.8643 18.9471 88.3331 17.3787 88.3331 15.4509C88.3331 13.523 86.8643 11.9546 85.0417 11.9546Z" fill="#6B2FE2"/>
<path d="M75.8287 127.258H46.3977C44.5828 127.258 43.1063 128.818 43.1063 130.746C43.1063 132.674 44.5828 134.242 46.3977 134.242H75.8287C77.6436 134.242 79.1124 132.674 79.1124 130.746C79.1124 128.818 77.6436 127.258 75.8287 127.258Z" fill="#6B2FE2"/>
<path d="M88.8253 127.258H87.1027C85.2878 127.258 83.8112 128.818 83.8112 130.746C83.8112 132.674 85.2878 134.242 87.1027 134.242H88.8253C90.6402 134.242 92.1168 132.674 92.1168 130.746C92.1168 128.818 90.6402 127.258 88.8253 127.258Z" fill="#6B2FE2"/>
<path d="M80.2737 147.517C75.4672 147.517 71.5605 151.675 71.5605 156.78C71.5605 161.886 75.4672 166.035 80.2737 166.035C85.0801 166.035 88.9945 161.886 88.9945 156.78C88.9945 151.675 85.0801 147.517 80.2737 147.517ZM80.2737 159.051C79.097 159.051 78.1358 158.03 78.1358 156.78C78.1358 155.522 79.097 154.509 80.2737 154.509C81.4503 154.509 82.4116 155.522 82.4116 156.78C82.4116 158.03 81.4503 159.051 80.2737 159.051Z" fill="#6B2FE2"/>
<path d="M140.458 67.903C139.174 66.5388 137.09 66.5388 135.806 67.903C134.521 69.2672 134.521 71.481 135.806 72.8452C143.373 80.8833 143.373 93.9617 135.806 102C134.521 103.364 134.521 105.578 135.806 106.942C136.444 107.62 137.29 107.963 138.128 107.963C138.974 107.963 139.812 107.62 140.458 106.942C150.586 96.1754 150.586 78.6696 140.458 67.903Z" fill="#6B2FE2"/>
<path d="M149.294 58.5173C148.01 57.1531 145.926 57.1531 144.642 58.5173C143.358 59.8815 143.358 62.0952 144.642 63.4594C150.671 69.8638 153.986 78.3758 153.986 87.4268C153.986 96.4779 150.671 104.99 144.642 111.386C143.358 112.75 143.358 114.964 144.642 116.328C145.288 117.014 146.126 117.349 146.972 117.349C147.81 117.349 148.656 117.014 149.294 116.328C164.298 100.391 164.298 74.4547 149.294 58.5173Z" fill="#6B2FE2"/>
<path d="M24.7417 72.8452C26.0337 71.481 26.0337 69.2672 24.7494 67.903C23.4575 66.5388 21.3811 66.5388 20.0968 67.903C9.96092 78.6696 9.96092 96.1754 20.0968 106.942C20.7351 107.62 21.581 107.963 22.4193 107.963C23.2575 107.963 24.1035 107.62 24.7417 106.942C26.026 105.578 26.026 103.364 24.7417 102C17.1821 93.9617 17.1821 80.8833 24.7417 72.8452Z" fill="#6B2FE2"/>
<path d="M6.56178 87.4268C6.56178 78.3676 9.88401 69.8638 15.9055 63.4594C17.1898 62.0952 17.1898 59.8815 15.9055 58.5173C14.6213 57.1531 12.5372 57.1531 11.2529 58.5173C-3.75096 74.4547 -3.75096 100.391 11.2529 116.328C11.8989 117.014 12.7371 117.349 13.5831 117.349C14.4213 117.349 15.2672 117.014 15.9055 116.328C17.1898 114.964 17.1898 112.75 15.9055 111.386C9.88401 104.99 6.56178 96.4779 6.56178 87.4268Z" fill="#6B2FE2"/>
<path d="M113.188 96.0284L97.8076 79.6907C96.9617 78.7921 95.7313 78.449 94.5777 78.8003L92.286 79.4947C91.963 79.5927 91.6477 79.7479 91.3631 79.9521L86.6336 83.3013C80.9197 79.0535 75.9363 73.6621 72.0296 67.5191L75.3903 63.9493C75.7825 63.5246 76.0748 63.0099 76.2286 62.4381L76.8822 60.0038C77.2129 58.7866 76.8899 57.4714 76.044 56.5729L60.6633 40.2352C59.7482 39.2631 58.387 38.9527 57.1796 39.4346L54.5649 40.4721C54.1265 40.6518 53.7266 40.9214 53.3883 41.2726C52.7653 41.9425 52.1655 42.6532 51.6041 43.4047C44.0137 53.5014 44.7828 68.0093 53.3883 77.1584L78.428 103.748C83.073 108.682 89.1868 111.198 95.3237 111.198C100.568 111.198 105.829 109.368 110.204 105.651C110.912 105.055 111.581 104.418 112.204 103.748C112.535 103.397 112.796 102.972 112.958 102.506L113.942 99.7207C114.396 98.4464 114.103 97.0005 113.188 96.0284ZM106.098 100.195C99.215 106.035 89.3175 105.439 83.0806 98.814L58.0409 72.2162C51.8041 65.5913 51.2427 55.078 56.7412 47.7668C56.995 47.4319 57.2565 47.1052 57.5333 46.7866L69.884 59.9139L65.5005 64.5702C64.4316 65.7056 64.2316 67.4864 65.0237 68.8588C69.9917 77.4933 76.8438 84.9596 84.8417 90.4409C85.9491 91.2006 87.3642 91.1843 88.4562 90.4164L94.5392 86.1033L107.021 99.3531C106.721 99.6472 106.413 99.9249 106.098 100.195Z" fill="#6B2FE2"/>
</svg>
