<svg width="192" height="190" viewBox="0 0 192 190" fill="none" xmlns="http://www.w3.org/2000/svg">
<path d="M78.9257 0.268555C90.1475 0.268555 100.296 5.09594 107.635 12.9072C114.988 20.7029 119.533 31.4825 119.533 43.4025C119.533 55.307 114.988 66.0866 107.635 73.8979C100.296 81.7092 90.1475 86.5365 78.9257 86.5365C67.7186 86.5365 57.5705 81.7092 50.2168 73.8979C42.8777 66.0866 38.3331 55.307 38.3331 43.4025C38.3331 31.4825 42.8777 20.7029 50.2168 12.9072C57.5705 5.09594 67.7186 0.268555 78.9257 0.268555ZM103.531 17.2659C97.2365 10.5795 88.5297 6.4551 78.9257 6.4551C69.3218 6.4551 60.6297 10.5795 54.3349 17.2659C48.0401 23.9524 44.1426 33.201 44.1426 43.4025C44.1426 53.6041 48.0401 62.8371 54.3349 69.5235C60.6297 76.21 69.3218 80.35 78.9257 80.35C88.5297 80.35 97.2365 76.21 103.531 69.5235C109.826 62.8371 113.709 53.6041 113.709 43.4025C113.709 33.201 109.826 23.9524 103.531 17.2659Z" fill="#6B2FE2"/>
<path d="M124.181 72.0391C122.577 72.0391 121.268 70.6487 121.268 68.9458C121.268 67.2429 122.577 65.8525 124.181 65.8525H158.831C160.111 65.8525 161.185 66.7274 161.582 67.9303L173.333 97.832L190.57 109.69C191.423 110.283 191.879 111.267 191.879 112.283H191.894V166.212C191.894 167.915 190.599 169.305 188.982 169.305H27.376C25.7582 169.305 24.4639 167.915 24.4639 166.212V150.761C24.4639 149.043 25.7582 147.668 27.376 147.668C28.9791 147.668 30.2734 149.043 30.2734 150.761V163.119H186.07V113.939L169.538 102.566C169.009 102.238 168.568 101.738 168.318 101.081L156.905 72.0391H124.181Z" fill="#6B2FE2"/>
<path d="M137.138 149.84C137.138 151.558 135.844 152.933 134.226 152.933C132.623 152.933 131.328 151.558 131.328 149.84V68.9458C131.328 67.2429 132.623 65.8525 134.226 65.8525C135.844 65.8525 137.138 67.2429 137.138 68.9458V149.84Z" fill="#6B2FE2"/>
<path d="M34.4504 65.8525C36.0535 65.8525 37.3477 67.2429 37.3477 68.9458C37.3477 70.6487 36.0535 72.0391 34.4504 72.0391H26.3171V89.1615C26.3171 90.8643 25.0082 92.2547 23.4051 92.2547C21.8019 92.2547 20.493 90.8643 20.493 89.1615V68.9458C20.493 67.2429 21.8019 65.8525 23.4051 65.8525H34.4504ZM20.493 132.561C20.493 130.858 21.8019 129.483 23.4051 129.483C25.0082 129.483 26.3171 130.858 26.3171 132.561V146.762H188.982C190.6 146.762 191.894 148.137 191.894 149.84C191.894 151.558 190.6 152.933 188.982 152.933H23.4051C21.8019 152.933 20.493 151.558 20.493 149.84V132.561Z" fill="#6B2FE2"/>
<path d="M3.8735 104.956C2.27039 104.956 0.961426 103.581 0.961426 101.862C0.961426 100.159 2.27039 98.7847 3.8735 98.7847H41.2305C42.8483 98.7847 44.1425 100.159 44.1425 101.862C44.1425 103.581 42.8483 104.956 41.2305 104.956H3.8735Z" fill="#6B2FE2"/>
<path d="M13.0804 120.672C11.4773 120.672 10.1683 119.281 10.1683 117.579C10.1683 115.876 11.4773 114.485 13.0804 114.485H34.5092C36.1123 114.485 37.4213 115.876 37.4213 117.579C37.4213 119.281 36.1123 120.672 34.5092 120.672H13.0804Z" fill="#6B2FE2"/>
<path d="M58.5706 28.2488C57.3646 27.1083 57.2617 25.1555 58.3353 23.8901C59.3942 22.609 61.2327 22.4997 62.4387 23.6245L78.8669 39.2002L87.8532 30.0454C89.0004 28.8581 90.8388 28.8893 91.9566 30.1235C93.0596 31.3421 93.0302 33.2949 91.8683 34.4822L81.0583 45.5118C79.9847 46.7303 78.1757 46.8241 76.9991 45.6992L58.5706 28.2488Z" fill="#6B2FE2"/>
<path d="M55.0702 186.021C65.3698 186.021 73.7193 177.152 73.7193 166.212C73.7193 155.271 65.3698 146.402 55.0702 146.402C44.7706 146.402 36.4211 155.271 36.4211 166.212C36.4211 177.152 44.7706 186.021 55.0702 186.021Z" fill="#FEFEFE"/>
<path d="M55.0702 143.309C61.0268 143.309 66.4244 145.871 70.3219 150.027C74.2194 154.167 76.6314 159.885 76.6314 166.212C76.6314 172.539 74.2194 178.257 70.3219 182.412C66.4244 186.552 61.0268 189.115 55.0702 189.115C49.1284 189.115 43.7308 186.552 39.8333 182.412C35.9358 178.257 33.5238 172.539 33.5238 166.212C33.5238 159.885 35.9358 154.167 39.8333 150.027C43.7308 145.871 49.1284 143.309 55.0702 143.309ZM66.2038 154.386C63.3505 151.37 59.4237 149.496 55.0702 149.496C50.7315 149.496 46.7899 151.37 43.9514 154.386C41.0981 157.416 39.3333 161.603 39.3333 166.212C39.3333 170.836 41.0981 175.007 43.9514 178.038C46.7899 181.053 50.7315 182.928 55.0702 182.928C59.4237 182.928 63.3505 181.053 66.2038 178.038C69.057 175.007 70.8072 170.836 70.8072 166.212C70.8072 161.603 69.057 157.416 66.2038 154.386Z" fill="#6B2FE2"/>
<path d="M158.773 186.021C169.072 186.021 177.422 177.152 177.422 166.212C177.422 155.271 169.072 146.402 158.773 146.402C148.473 146.402 140.123 155.271 140.123 166.212C140.123 177.152 148.473 186.021 158.773 186.021Z" fill="#FEFEFE"/>
<path d="M158.773 143.309C164.714 143.309 170.112 145.871 174.01 150.027C177.907 154.167 180.319 159.885 180.319 166.212C180.319 172.539 177.907 178.257 174.01 182.412C170.112 186.552 164.714 189.115 158.773 189.115C152.816 189.115 147.418 186.552 143.521 182.412C139.623 178.257 137.211 172.539 137.211 166.212C137.211 159.885 139.623 154.167 143.521 150.027C147.418 145.871 152.816 143.309 158.773 143.309ZM169.891 154.386C167.053 151.37 163.111 149.496 158.773 149.496C154.419 149.496 150.492 151.37 147.639 154.386C144.786 157.416 143.036 161.603 143.036 166.212C143.036 170.836 144.786 175.007 147.639 178.038C150.492 181.053 154.419 182.928 158.773 182.928C163.111 182.928 167.053 181.053 169.891 178.038C172.745 175.007 174.51 170.836 174.51 166.212C174.51 161.603 172.745 157.416 169.891 154.386Z" fill="#6B2FE2"/>
<path d="M55.0702 155.151C57.9528 155.151 60.5561 156.401 62.4386 158.4C64.3212 160.4 65.4831 163.165 65.4831 166.212C65.4831 169.258 64.3212 172.023 62.4386 174.023C60.5561 176.038 57.9528 177.272 55.0702 177.272C52.2022 177.272 49.599 176.038 47.7164 174.023C45.8339 172.023 44.672 169.258 44.672 166.212C44.672 163.165 45.8339 160.4 47.7164 158.4C49.599 156.401 52.2022 155.151 55.0702 155.151ZM58.3205 162.759C57.4969 161.884 56.3497 161.337 55.0702 161.337C53.8053 161.337 52.6582 161.884 51.8345 162.759C50.9962 163.65 50.4814 164.868 50.4814 166.212C50.4814 167.555 50.9962 168.774 51.8345 169.664C52.6582 170.539 53.8053 171.086 55.0702 171.086C56.3497 171.086 57.4969 170.539 58.3205 169.664C59.1441 168.774 59.6589 167.555 59.6589 166.212C59.6589 164.868 59.1441 163.65 58.3205 162.759Z" fill="#6B2FE2"/>
<path d="M158.773 155.151C161.64 155.151 164.244 156.401 166.126 158.4C168.009 160.4 169.171 163.165 169.171 166.212C169.171 169.258 168.009 172.023 166.126 174.023C164.244 176.038 161.64 177.272 158.773 177.272C155.89 177.272 153.287 176.038 151.404 174.023C149.522 172.023 148.36 169.258 148.36 166.212C148.36 163.165 149.522 160.4 151.404 158.4C153.287 156.401 155.89 155.151 158.773 155.151ZM162.008 162.759C161.185 161.884 160.037 161.337 158.773 161.337C157.493 161.337 156.346 161.884 155.522 162.759C154.699 163.65 154.184 164.868 154.184 166.212C154.184 167.555 154.699 168.774 155.522 169.664C156.346 170.539 157.493 171.086 158.773 171.086C160.037 171.086 161.185 170.539 162.008 169.664C162.846 168.774 163.361 167.555 163.361 166.212C163.361 164.868 162.846 163.65 162.008 162.759Z" fill="#6B2FE2"/>
</svg>
