<svg width="164" height="198" viewBox="0 0 164 198" fill="none" xmlns="http://www.w3.org/2000/svg">
<path d="M103.855 77.0599C104.334 78.6799 103.49 80.4071 101.965 80.9159C100.44 81.4313 98.8137 80.5276 98.3284 78.9075L89.9148 50.6905C88.73 47.7048 87.3687 45.5023 85.6734 44.0362C84.0474 42.6371 82.0117 41.8471 79.4026 41.6061H16.5309C14.9301 41.6061 13.6319 40.2271 13.6319 38.5267C13.6319 36.8263 14.9301 35.4473 16.5309 35.4473H79.4908L79.7177 35.4607C83.5936 35.7887 86.7133 37.0272 89.3161 39.2765C91.7866 41.412 93.6836 44.3977 95.2402 48.3207C95.3159 48.4746 95.3789 48.6286 95.423 48.796L103.855 77.0599Z" fill="#6B2FE2"/>
<path d="M129.279 49.9139C129.758 51.534 128.913 53.2611 127.388 53.7766C125.863 54.2854 124.231 53.3883 123.752 51.7683L115.42 23.8324C114.216 21.7906 112.685 20.117 110.889 18.7647C109.036 17.3723 106.893 16.3079 104.505 15.5179H41.9544C40.3536 15.5179 39.0553 14.1389 39.0553 12.4385C39.0553 10.7448 40.3536 9.36572 41.9544 9.36572H104.914V9.37242C105.185 9.37242 105.456 9.41258 105.727 9.49292C108.885 10.4904 111.74 11.8761 114.216 13.7372C116.693 15.5982 118.792 17.9279 120.443 20.7931C120.613 21.0475 120.752 21.3354 120.846 21.65L129.279 49.9139Z" fill="#6B2FE2"/>
<path d="M0.289917 60.5648C0.289917 58.8644 1.58819 55.1758 3.18897 55.1758C4.78975 55.1758 6.08803 56.5548 6.08803 58.2552L5.59014 147.592C5.59014 149.293 4.78975 150.665 3.18897 150.665C1.58819 150.665 0.289917 149.293 0.289917 147.592V60.5648Z" fill="#6B2FE2"/>
<path d="M25.184 79.202C25.184 77.5016 26.4822 76.1226 28.083 76.1226C29.6838 76.1226 30.9758 77.5016 30.9758 79.202V112.266C30.9758 113.966 29.6838 115.345 28.083 115.345C26.4822 115.345 25.184 113.966 25.184 112.266V79.202Z" fill="#6B2FE2"/>
<path d="M11.3063 48.1732C10.1782 49.3715 8.35054 49.3782 7.21613 48.1866C6.08801 46.9883 6.08171 45.0469 7.20352 43.8419L43.2905 5.2351C44.4123 4.0301 46.2462 4.0234 47.3743 5.22171C48.5087 6.41332 48.5151 8.3614 47.3869 9.5597L11.3063 48.1732Z" fill="#6B2FE2"/>
<path d="M21.7618 49.5791C24.623 49.5791 27.2133 50.8176 29.0914 52.8058C30.9632 54.8008 32.1228 57.5522 32.1228 60.5915C32.1228 63.6307 30.9632 66.3888 29.0914 68.3771C27.2133 70.372 24.623 71.6038 21.7618 71.6038C18.8943 71.6038 16.304 70.372 14.4322 68.3771C12.5542 66.3888 11.3945 63.6307 11.3945 60.5915C11.3945 57.5522 12.5542 54.8008 14.4322 52.8058C16.304 50.8176 18.8943 49.5791 21.7618 49.5791ZM24.9886 57.1572C24.163 56.2802 23.0223 55.738 21.7618 55.738C20.495 55.738 19.3543 56.2802 18.5287 57.1572C17.7031 58.0409 17.1926 59.2526 17.1926 60.5915C17.1926 61.9303 17.7031 63.1487 18.5287 64.0257C19.3543 64.9027 20.495 65.4449 21.7618 65.4449C23.0223 65.4449 24.163 64.9027 24.9886 64.0257C25.8142 63.1487 26.331 61.9303 26.331 60.5915C26.331 59.2526 25.8142 58.0409 24.9886 57.1572Z" fill="#6B2FE2"/>
<path d="M107.114 89.1167C109.975 89.1167 112.572 90.3485 114.443 92.3434C116.321 94.3384 117.481 97.0898 117.481 100.129C117.481 103.168 116.321 105.926 114.443 107.915C112.572 109.91 109.975 111.141 107.114 111.141C104.253 111.141 101.662 109.91 99.7842 107.915C97.9124 105.926 96.7528 103.168 96.7528 100.129C96.7528 97.0898 97.9124 94.3384 99.7842 92.3434C101.662 90.3485 104.253 89.1167 107.114 89.1167ZM110.347 96.6948C109.521 95.8178 108.374 95.2756 107.114 95.2756C105.853 95.2756 104.713 95.8178 103.887 96.6948C103.055 97.5718 102.545 98.7902 102.545 100.129C102.545 101.468 103.055 102.686 103.887 103.563C104.713 104.44 105.853 104.983 107.114 104.983C108.374 104.983 109.521 104.44 110.347 103.563C111.172 102.686 111.683 101.468 111.683 100.129C111.683 98.7902 111.172 97.5718 110.347 96.6948Z" fill="#6B2FE2"/>
<path d="M21.4719 138.709C24.3332 138.709 26.9234 139.941 28.8015 141.936C30.6733 143.924 31.8329 146.682 31.8329 149.721C31.8329 152.761 30.6733 155.512 28.8015 157.507C26.9234 159.502 24.3332 160.734 21.4719 160.734C18.6044 160.734 16.0141 159.502 14.1423 157.507C12.2643 155.512 11.1046 152.761 11.1046 149.721C11.1046 146.682 12.2643 143.924 14.1423 141.936C16.0141 139.941 18.6044 138.709 21.4719 138.709ZM24.6987 146.287C23.8731 145.41 22.7324 144.868 21.4719 144.868C20.2052 144.868 19.0644 145.41 18.2388 146.287C17.4132 147.164 16.8965 148.382 16.8965 149.721C16.8965 151.06 17.4132 152.272 18.2388 153.156C19.0644 154.033 20.2052 154.575 21.4719 154.575C22.7324 154.575 23.8731 154.033 24.6987 153.156C25.5243 152.272 26.0411 151.06 26.0411 149.721C26.0411 148.382 25.5243 147.164 24.6987 146.287Z" fill="#6B2FE2"/>
<path d="M91.3517 85.3474L126.916 46.1113L126.934 46.0778L126.941 46.0845C131.094 41.5792 136.602 39.283 142.136 39.2093C147.675 39.1357 153.247 41.298 157.501 45.7096L157.532 45.7364L157.526 45.7431C161.767 50.1547 163.929 56.0057 163.998 61.8767C164.068 67.7678 162.032 73.679 157.879 78.1977L122.309 116.912L118.174 112.627L153.738 73.92C156.782 70.6062 158.276 66.2682 158.225 61.9503C158.175 57.6391 156.587 53.3413 153.473 50.1146L153.436 50.0878L153.442 50.0811C150.322 46.8678 146.251 45.2879 142.205 45.3414C138.14 45.395 134.1 47.082 131.056 50.3957L131.037 50.4292L131.031 50.4225L95.486 89.1097L91.3517 85.3474Z" fill="#6B2FE2"/>
<path d="M6.97662 44.1567L41.1287 6.98248C45.2315 2.51729 50.683 0.241185 56.1534 0.167546C61.6238 0.100602 67.1194 2.22943 71.323 6.58751L71.3545 6.60759V6.61429C73.0247 8.36154 74.3733 10.3297 75.388 12.4384H68.5374C68.153 11.9364 67.7433 11.4477 67.2959 10.9858L67.2581 10.9657L67.2644 10.959C64.2014 7.7992 60.1995 6.25279 56.2227 6.29965C52.2334 6.3532 48.2629 8.01343 45.2694 11.2669L10.9408 48.6353L6.97662 44.1567ZM71.8146 38.5267L71.6949 38.6606L36.2571 77.2272L30.7804 74.9243L63.7414 38.5267H71.8146Z" fill="#6B2FE2"/>
<path d="M5.26871 134.88L40.4544 96.072C44.6328 91.5265 50.1788 89.2036 55.7564 89.1299C61.3276 89.063 66.924 91.232 71.2033 95.6704L71.2411 95.6905L71.2348 95.6972C75.4951 100.136 77.6694 106.013 77.7388 111.924C77.8081 117.842 75.7598 123.787 71.5877 128.333L34.1521 168.111L31.9841 162.642L67.4408 124.055C70.51 120.714 72.0163 116.343 71.9659 111.998C71.9155 107.647 70.3147 103.322 67.1761 100.069L67.1383 100.049L67.1446 100.042C64.0061 96.8017 59.9033 95.2085 55.8257 95.262C51.7292 95.3156 47.6579 97.016 44.595 100.35L9.78115 138.24L5.26871 134.88Z" fill="#6B2FE2"/>
<path d="M21.4719 126.913C27.3961 126.913 32.7656 129.464 36.6478 133.594C40.5364 137.718 42.9375 143.422 42.9375 149.721C42.9375 156.02 40.5364 161.717 36.6478 165.848C32.7656 169.972 27.3961 172.529 21.4719 172.529C15.5415 172.529 10.1719 169.972 6.28969 165.848C2.40117 161.717 0 156.02 0 149.721C0 143.422 2.40117 137.718 6.28969 133.594C10.1719 129.464 15.5415 126.913 21.4719 126.913ZM32.5513 137.946C29.7153 134.933 25.7953 133.072 21.4719 133.072C17.1422 133.072 13.2222 134.933 10.3862 137.946C7.55015 140.958 5.79811 145.122 5.79811 149.721C5.79811 154.32 7.55015 158.477 10.3862 161.49C13.2222 164.502 17.1422 166.37 21.4719 166.37C25.7953 166.37 29.7153 164.502 32.5513 161.49C35.3874 158.477 37.1457 154.32 37.1457 149.721C37.1457 145.122 35.3874 140.958 32.5513 137.946Z" fill="#6B2FE2"/>
<path d="M107.114 77.8496C113.044 77.8496 118.414 80.4069 122.296 84.5307C126.184 88.6611 128.586 94.3581 128.586 100.658C128.586 106.957 126.184 112.654 122.296 116.784C118.414 120.908 113.044 123.465 107.114 123.465C101.19 123.465 95.82 120.908 91.9315 116.784C88.0493 112.654 85.6481 106.957 85.6481 100.658C85.6481 94.3581 88.0493 88.6611 91.9315 84.5307C95.82 80.4069 101.19 77.8496 107.114 77.8496ZM118.199 88.882C115.363 85.8695 111.443 84.0085 107.114 84.0085C102.79 84.0085 98.8703 85.8695 96.0343 88.882C93.1983 91.8945 91.4399 96.0585 91.4399 100.658C91.4399 105.257 93.1983 109.421 96.0343 112.433C98.8703 115.446 102.79 117.307 107.114 117.307C111.443 117.307 115.363 115.446 118.199 112.433C121.036 109.421 122.788 105.257 122.788 100.658C122.788 96.0585 121.036 91.8945 118.199 88.882Z" fill="#6B2FE2"/>
<path d="M21.7618 37.7837C27.686 37.7837 33.0555 40.341 36.9378 44.4647C40.8263 48.5952 43.2274 54.2989 43.2274 60.5916C43.2274 66.8911 40.8263 72.5948 36.9378 76.7185C33.0555 80.849 27.686 83.3996 21.7618 83.3996C15.8314 83.3996 10.4618 80.849 6.57961 76.7185C2.69109 72.5948 0.289917 66.8911 0.289917 60.5916C0.289917 54.2989 2.69109 48.5952 6.57961 44.4647C10.4618 40.341 15.8314 37.7837 21.7618 37.7837ZM32.8413 48.8228C30.0052 45.8103 26.0852 43.9426 21.7618 43.9426C17.4322 43.9426 13.5121 45.8103 10.6761 48.8228C7.84007 51.8353 6.08803 55.9926 6.08803 60.5916C6.08803 65.1907 7.84007 69.3547 10.6761 72.3672C13.5121 75.3797 17.4322 77.2407 21.7618 77.2407C26.0852 77.2407 30.0052 75.3797 32.8413 72.3672C35.6773 69.3547 37.4356 65.1907 37.4356 60.5916C37.4356 55.9926 35.6773 51.8353 32.8413 48.8228Z" fill="#6B2FE2"/>
<path d="M53.2418 147.586C51.641 147.586 50.3427 146.207 50.3427 144.513C50.3427 142.813 51.641 141.434 53.2418 141.434H150.058C151.658 141.434 152.95 142.813 152.95 144.513C152.95 145.45 152.553 146.3 151.923 146.863L126.55 173.286C125.989 173.875 125.252 174.163 124.521 174.163V174.176H11.8987C10.2979 174.176 8.99966 172.797 8.99966 171.097C8.99966 169.396 10.2979 168.017 11.8987 168.017H123.355L142.974 147.586H53.2418Z" fill="#6B2FE2"/>
<path d="M7.63837 165.667C7.63837 163.967 8.93664 162.588 10.5374 162.588C12.1382 162.588 13.4302 163.967 13.4302 165.667V184.666H120.588L143.73 161.256V146.193C143.73 144.493 145.028 143.114 146.629 143.114C148.23 143.114 149.528 144.493 149.528 146.193V162.561H149.522C149.522 163.371 149.219 164.181 148.621 164.784L123.878 189.821C123.342 190.437 122.586 190.825 121.735 190.825H10.5374C8.93664 190.825 7.63837 189.446 7.63837 187.746V165.667Z" fill="#6B2FE2"/>
<path d="M124.634 187.746C124.634 189.446 123.336 190.825 121.735 190.825C120.134 190.825 118.836 189.446 118.836 187.746V171.097C118.836 169.396 120.134 168.017 121.735 168.017C123.336 168.017 124.634 169.396 124.634 171.097V187.746Z" fill="#6B2FE2"/>
<path d="M75.8292 39.9861L77.0833 38.6338L81.2744 38.761L83.5117 40.4614L79.9509 44.2839C79.0686 45.2345 78.6274 46.4864 78.6337 47.7249C78.64 48.9633 79.0875 50.1951 79.9761 51.1256L80.0013 51.139L79.995 51.1457C80.8836 52.0696 82.0495 52.5315 83.2155 52.5248C84.3751 52.5181 85.541 52.0428 86.417 51.0989L91.0177 46.1584L93.2235 52.5181L90.5324 55.4034C88.5346 57.5523 85.8876 58.6368 83.2344 58.6569C80.5937 58.6703 77.9405 57.6192 75.9237 55.5038L75.9048 55.4904V55.4837C73.8944 53.3616 72.8797 50.5566 72.8608 47.7516C72.8482 44.94 73.8377 42.1283 75.8292 39.9861ZM101.379 12.5322L105.324 8.29464L105.33 8.26786L105.337 8.27455C107.334 6.13903 109.975 5.06123 112.622 5.04114C115.263 5.02775 117.916 6.07878 119.933 8.19422L119.952 8.20761V8.2143C121.962 10.3364 122.977 13.1414 122.996 15.9464C123.008 18.758 122.019 21.5764 120.027 23.7186L118.811 25.0173L118.086 22.5739L115.609 19.7287L115.905 19.4141C116.788 18.4635 117.229 17.2116 117.223 15.9732C117.216 14.7347 116.769 13.5029 115.88 12.5724L115.855 12.559L115.861 12.5523C114.973 11.6285 113.807 11.1666 112.641 11.1732C111.481 11.1799 110.315 11.6619 109.439 12.5992L109.433 12.6259L109.427 12.6192L109.42 12.6259L101.379 12.5322Z" fill="#6B2FE2"/>
<path d="M24.497 194.454C28.6216 194.454 31.9652 190.902 31.9652 186.521C31.9652 182.14 28.6216 178.588 24.497 178.588C20.3724 178.588 17.0288 182.14 17.0288 186.521C17.0288 190.902 20.3724 194.454 24.497 194.454Z" fill="#FEFEFE"/>
<path d="M24.497 175.508C27.3582 175.508 29.9485 176.74 31.8266 178.735C33.6983 180.723 34.858 183.481 34.858 186.521C34.858 189.56 33.6983 192.311 31.8266 194.306C29.9485 196.295 27.3582 197.526 24.497 197.526C21.6358 197.526 19.0392 196.295 17.1674 194.306C15.2894 192.311 14.1297 189.56 14.1297 186.521C14.1297 183.481 15.2894 180.723 17.1674 178.735C19.0392 176.74 21.6358 175.508 24.497 175.508ZM27.7238 183.086C26.8982 182.209 25.7575 181.66 24.497 181.66C23.2302 181.66 22.0895 182.209 21.2639 183.086C20.4383 183.963 19.9278 185.175 19.9278 186.521C19.9278 187.86 20.4383 189.071 21.2639 189.948C22.0895 190.825 23.2302 191.374 24.497 191.374C25.7575 191.374 26.8982 190.825 27.7238 189.948C28.5557 189.071 29.0662 187.86 29.0662 186.521C29.0662 185.175 28.5557 183.963 27.7238 183.086Z" fill="#6B2FE2"/>
<path d="M109.88 194.454C114.005 194.454 117.349 190.902 117.349 186.521C117.349 182.14 114.005 178.588 109.88 178.588C105.756 178.588 102.412 182.14 102.412 186.521C102.412 190.902 105.756 194.454 109.88 194.454Z" fill="#FEFEFE"/>
<path d="M109.88 175.508C112.742 175.508 115.338 176.74 117.21 178.735C119.088 180.723 120.248 183.481 120.248 186.521C120.248 189.56 119.088 192.311 117.21 194.306C115.338 196.295 112.742 197.526 109.88 197.526C107.019 197.526 104.429 196.295 102.551 194.306C100.679 192.311 99.5132 189.56 99.5132 186.521C99.5132 183.481 100.679 180.723 102.551 178.735C104.429 176.74 107.019 175.508 109.88 175.508ZM113.114 183.086C112.288 182.209 111.141 181.66 109.88 181.66C108.62 181.66 107.479 182.209 106.647 183.086C105.822 183.963 105.311 185.175 105.311 186.521C105.311 187.86 105.822 189.071 106.647 189.948C107.479 190.825 108.62 191.374 109.88 191.374C111.141 191.374 112.288 190.825 113.114 189.948C113.939 189.071 114.45 187.86 114.45 186.521C114.45 185.175 113.939 183.963 113.114 183.086Z" fill="#6B2FE2"/>
</svg>
