<svg width="100" height="100" viewBox="0 0 100 100" fill="none" xmlns="http://www.w3.org/2000/svg">
<circle cx="50" cy="50" r="49" fill="#FEFEFE" stroke="#6B2FE2" stroke-width="2"/>
<path d="M46.5 76C46.5 77.933 48.067 79.5 50 79.5C51.933 79.5 53.5 77.933 53.5 76L46.5 76ZM52.4749 18.5251C51.108 17.1583 48.892 17.1583 47.5251 18.5251L25.2513 40.799C23.8844 42.1658 23.8844 44.3819 25.2513 45.7487C26.6181 47.1156 28.8342 47.1156 30.201 45.7487L50 25.9497L69.799 45.7487C71.1658 47.1156 73.3819 47.1156 74.7487 45.7487C76.1156 44.3819 76.1156 42.1658 74.7487 40.799L52.4749 18.5251ZM53.5 76V21L46.5 21V76L53.5 76Z" fill="#6B2FE2"/>
</svg>
